<svg width="1696" height="1080" viewBox="0 0 1696 1080" fill="none" xmlns="http://www.w3.org/2000/svg">
<path d="M1696 0H-32V1080H1696V0Z" fill="url(#paint0_radial_2_3)"/>
<g filter="url(#filter0_d_2_3)">
<path d="M1266.25 796C1269.48 796 1272.1 792.194 1272.1 787.5C1272.1 782.806 1269.48 779 1266.25 779C1263.02 779 1260.4 782.806 1260.4 787.5C1260.4 792.194 1263.02 796 1266.25 796Z" fill="#D9D9D9"/>
</g>
<g filter="url(#filter1_d_2_3)">
<path d="M1266.25 796C1269.48 796 1272.1 792.194 1272.1 787.5C1272.1 782.806 1269.48 779 1266.25 779C1263.02 779 1260.4 782.806 1260.4 787.5C1260.4 792.194 1263.02 796 1266.25 796Z" fill="white"/>
</g>
<g filter="url(#filter2_d_2_3)">
<path d="M1254.55 165C1257.78 165 1260.4 161.194 1260.4 156.5C1260.4 151.806 1257.78 148 1254.55 148C1251.32 148 1248.7 151.806 1248.7 156.5C1248.7 161.194 1251.32 165 1254.55 165Z" fill="white"/>
</g>
<g filter="url(#filter3_d_2_3)">
<path d="M146.65 848C149.881 848 152.5 844.194 152.5 839.5C152.5 834.806 149.881 831 146.65 831C143.419 831 140.8 834.806 140.8 839.5C140.8 844.194 143.419 848 146.65 848Z" fill="white"/>
</g>
<g filter="url(#filter4_d_2_3)">
<path d="M1529.05 516C1532.28 516 1534.9 512.194 1534.9 507.5C1534.9 502.806 1532.28 499 1529.05 499C1525.82 499 1523.2 502.806 1523.2 507.5C1523.2 512.194 1525.82 516 1529.05 516Z" fill="white"/>
</g>
<g filter="url(#filter5_d_2_3)">
<path d="M379.75 173C382.981 173 385.6 169.194 385.6 164.5C385.6 159.806 382.981 156 379.75 156C376.519 156 373.9 159.806 373.9 164.5C373.9 169.194 376.519 173 379.75 173Z" fill="white"/>
</g>
<g filter="url(#filter6_d_2_3)">
<path d="M508.45 675C511.681 675 514.3 671.194 514.3 666.5C514.3 661.806 511.681 658 508.45 658C505.219 658 502.6 661.806 502.6 666.5C502.6 671.194 505.219 675 508.45 675Z" fill="white"/>
</g>
<g filter="url(#filter7_d_2_3)">
<path d="M1540.75 1000C1543.98 1000 1546.6 996.194 1546.6 991.5C1546.6 986.806 1543.98 983 1540.75 983C1537.52 983 1534.9 986.806 1534.9 991.5C1534.9 996.194 1537.52 1000 1540.75 1000Z" fill="white"/>
</g>
<g filter="url(#filter8_d_2_3)">
<path d="M1266.25 796C1269.48 796 1272.1 792.194 1272.1 787.5C1272.1 782.806 1269.48 779 1266.25 779C1263.02 779 1260.4 782.806 1260.4 787.5C1260.4 792.194 1263.02 796 1266.25 796Z" fill="white"/>
</g>
<g filter="url(#filter9_d_2_3)">
<path d="M73.75 165C76.9809 165 79.6 161.194 79.6 156.5C79.6 151.806 76.9809 148 73.75 148C70.5191 148 67.9 151.806 67.9 156.5C67.9 161.194 70.5191 165 73.75 165Z" fill="white"/>
</g>
<g filter="url(#filter10_d_2_3)">
<path d="M170.05 266C173.281 266 175.9 262.194 175.9 257.5C175.9 252.806 173.281 249 170.05 249C166.819 249 164.2 252.806 164.2 257.5C164.2 262.194 166.819 266 170.05 266Z" fill="white"/>
</g>
<g filter="url(#filter11_d_2_3)">
<path d="M190.75 458C193.981 458 196.6 454.194 196.6 449.5C196.6 444.806 193.981 441 190.75 441C187.519 441 184.9 444.806 184.9 449.5C184.9 454.194 187.519 458 190.75 458Z" fill="white"/>
</g>
<g filter="url(#filter12_d_2_3)">
<path d="M837.85 236C841.081 236 843.7 232.194 843.7 227.5C843.7 222.806 841.081 219 837.85 219C834.619 219 832 222.806 832 227.5C832 232.194 834.619 236 837.85 236Z" fill="white"/>
</g>
<g filter="url(#filter13_d_2_3)">
<path d="M722.65 910C725.881 910 728.5 906.194 728.5 901.5C728.5 896.806 725.881 893 722.65 893C719.419 893 716.8 896.806 716.8 901.5C716.8 906.194 719.419 910 722.65 910Z" fill="white"/>
</g>
<g filter="url(#filter14_d_2_3)">
<path d="M678.55 394C681.781 394 684.4 390.194 684.4 385.5C684.4 380.806 681.781 377 678.55 377C675.319 377 672.7 380.806 672.7 385.5C672.7 390.194 675.319 394 678.55 394Z" fill="white"/>
</g>
<g filter="url(#filter15_d_2_3)">
<path d="M118.75 687C124.963 687 130 682.299 130 676.5C130 670.701 124.963 666 118.75 666C112.537 666 107.5 670.701 107.5 676.5C107.5 682.299 112.537 687 118.75 687Z" fill="white"/>
</g>
<g filter="url(#filter16_d_2_3)">
<path d="M1500.25 270C1506.46 270 1511.5 265.299 1511.5 259.5C1511.5 253.701 1506.46 249 1500.25 249C1494.04 249 1489 253.701 1489 259.5C1489 265.299 1494.04 270 1500.25 270Z" fill="white"/>
</g>
<g filter="url(#filter17_d_2_3)">
<path d="M362.65 954C368.863 954 373.9 949.299 373.9 943.5C373.9 937.701 368.863 933 362.65 933C356.437 933 351.4 937.701 351.4 943.5C351.4 949.299 356.437 954 362.65 954Z" fill="white"/>
</g>
<g filter="url(#filter18_d_2_3)">
<path d="M95.8 480C97.7882 480 99.4 477.985 99.4 475.5C99.4 473.015 97.7882 471 95.8 471C93.8118 471 92.2 473.015 92.2 475.5C92.2 477.985 93.8118 480 95.8 480Z" fill="white"/>
</g>
<g filter="url(#filter19_d_2_3)">
<path d="M763.6 202C765.588 202 767.2 199.985 767.2 197.5C767.2 195.015 765.588 193 763.6 193C761.612 193 760 195.015 760 197.5C760 199.985 761.612 202 763.6 202Z" fill="white"/>
</g>
<g filter="url(#filter20_d_2_3)">
<path d="M79.6 983C81.5882 983 83.2 980.985 83.2 978.5C83.2 976.015 81.5882 974 79.6 974C77.6118 974 76 976.015 76 978.5C76 980.985 77.6118 983 79.6 983Z" fill="white"/>
</g>
<g filter="url(#filter21_d_2_3)">
<path d="M347.8 597C349.788 597 351.4 594.985 351.4 592.5C351.4 590.015 349.788 588 347.8 588C345.812 588 344.2 590.015 344.2 592.5C344.2 594.985 345.812 597 347.8 597Z" fill="white"/>
</g>
<g filter="url(#filter22_d_2_3)">
<path d="M389.2 382C391.188 382 392.8 379.985 392.8 377.5C392.8 375.015 391.188 373 389.2 373C387.212 373 385.6 375.015 385.6 377.5C385.6 379.985 387.212 382 389.2 382Z" fill="white"/>
</g>
<g filter="url(#filter23_d_2_3)">
<path d="M311.8 844C313.788 844 315.4 841.985 315.4 839.5C315.4 837.015 313.788 835 311.8 835C309.812 835 308.2 837.015 308.2 839.5C308.2 841.985 309.812 844 311.8 844Z" fill="white"/>
</g>
<g filter="url(#filter24_d_2_3)">
<path d="M546.7 959C548.688 959 550.3 956.985 550.3 954.5C550.3 952.015 548.688 950 546.7 950C544.712 950 543.1 952.015 543.1 954.5C543.1 956.985 544.712 959 546.7 959Z" fill="white"/>
</g>
<g filter="url(#filter25_d_2_3)">
<path d="M843.7 788C845.688 788 847.3 785.985 847.3 783.5C847.3 781.015 845.688 779 843.7 779C841.712 779 840.1 781.015 840.1 783.5C840.1 785.985 841.712 788 843.7 788Z" fill="white"/>
</g>
<g filter="url(#filter26_d_2_3)">
<path d="M966.1 1009C968.088 1009 969.7 1006.99 969.7 1004.5C969.7 1002.01 968.088 1000 966.1 1000C964.112 1000 962.5 1002.01 962.5 1004.5C962.5 1006.99 964.112 1009 966.1 1009Z" fill="white"/>
</g>
<g filter="url(#filter27_d_2_3)">
<path d="M580 228C581.988 228 583.6 225.985 583.6 223.5C583.6 221.015 581.988 219 580 219C578.012 219 576.4 221.015 576.4 223.5C576.4 225.985 578.012 228 580 228Z" fill="white"/>
</g>
<g filter="url(#filter28_d_2_3)">
<path d="M669.1 69C671.088 69 672.7 66.9853 672.7 64.5C672.7 62.0147 671.088 60 669.1 60C667.112 60 665.5 62.0147 665.5 64.5C665.5 66.9853 667.112 69 669.1 69Z" fill="white"/>
</g>
<g filter="url(#filter29_d_2_3)">
<path d="M1156 262C1157.99 262 1159.6 259.985 1159.6 257.5C1159.6 255.015 1157.99 253 1156 253C1154.01 253 1152.4 255.015 1152.4 257.5C1152.4 259.985 1154.01 262 1156 262Z" fill="white"/>
</g>
<g filter="url(#filter30_d_2_3)">
<path d="M1181.2 919C1183.19 919 1184.8 916.985 1184.8 914.5C1184.8 912.015 1183.19 910 1181.2 910C1179.21 910 1177.6 912.015 1177.6 914.5C1177.6 916.985 1179.21 919 1181.2 919Z" fill="white"/>
</g>
<g filter="url(#filter31_d_2_3)">
<path d="M1504.3 857C1506.29 857 1507.9 854.985 1507.9 852.5C1507.9 850.015 1506.29 848 1504.3 848C1502.31 848 1500.7 850.015 1500.7 852.5C1500.7 854.985 1502.31 857 1504.3 857Z" fill="white"/>
</g>
<g filter="url(#filter32_d_2_3)">
<path d="M1412.5 606C1414.49 606 1416.1 603.985 1416.1 601.5C1416.1 599.015 1414.49 597 1412.5 597C1410.51 597 1408.9 599.015 1408.9 601.5C1408.9 603.985 1410.51 606 1412.5 606Z" fill="white"/>
</g>
<g filter="url(#filter33_d_2_3)">
<path d="M1550.2 111C1552.19 111 1553.8 108.985 1553.8 106.5C1553.8 104.015 1552.19 102 1550.2 102C1548.21 102 1546.6 104.015 1546.6 106.5C1546.6 108.985 1548.21 111 1550.2 111Z" fill="white"/>
</g>
<g filter="url(#filter34_d_2_3)">
<path d="M1092.1 423C1094.09 423 1095.7 420.985 1095.7 418.5C1095.7 416.015 1094.09 414 1092.1 414C1090.11 414 1088.5 416.015 1088.5 418.5C1088.5 420.985 1090.11 423 1092.1 423Z" fill="white"/>
</g>
<g filter="url(#filter35_d_2_3)">
<path d="M1099.3 681C1101.29 681 1102.9 678.985 1102.9 676.5C1102.9 674.015 1101.29 672 1099.3 672C1097.31 672 1095.7 674.015 1095.7 676.5C1095.7 678.985 1097.31 681 1099.3 681Z" fill="white"/>
</g>
<g filter="url(#filter36_d_2_3)">
<path d="M1345.9 432C1347.89 432 1349.5 429.985 1349.5 427.5C1349.5 425.015 1347.89 423 1345.9 423C1343.91 423 1342.3 425.015 1342.3 427.5C1342.3 429.985 1343.91 432 1345.9 432Z" fill="white"/>
</g>
<g filter="url(#filter37_d_2_3)">
<path d="M891.4 432C893.388 432 895 429.985 895 427.5C895 425.015 893.388 423 891.4 423C889.412 423 887.8 425.015 887.8 427.5C887.8 429.985 889.412 432 891.4 432Z" fill="white"/>
</g>
<g filter="url(#filter38_d_2_3)">
<path d="M688 597C689.988 597 691.6 594.985 691.6 592.5C691.6 590.015 689.988 588 688 588C686.012 588 684.4 590.015 684.4 592.5C684.4 594.985 686.012 597 688 597Z" fill="white"/>
</g>
<g filter="url(#filter39_d_2_3)">
<path d="M898.6 615C900.588 615 902.2 612.985 902.2 610.5C902.2 608.015 900.588 606 898.6 606C896.612 606 895 608.015 895 610.5C895 612.985 896.612 615 898.6 615Z" fill="white"/>
</g>
<defs>
<filter id="filter0_d_2_3" x="1256.4" y="775" width="19.7" height="25" filterUnits="userSpaceOnUse" color-interpolation-filters="sRGB">
<feFlood flood-opacity="0" result="BackgroundImageFix"/>
<feColorMatrix in="SourceAlpha" type="matrix" values="0 0 0 0 0 0 0 0 0 0 0 0 0 0 0 0 0 0 127 0" result="hardAlpha"/>
<feOffset/>
<feGaussianBlur stdDeviation="2"/>
<feColorMatrix type="matrix" values="0 0 0 0 1 0 0 0 0 1 0 0 0 0 1 0 0 0 0.25 0"/>
<feBlend mode="normal" in2="BackgroundImageFix" result="effect1_dropShadow_2_3"/>
<feBlend mode="normal" in="SourceGraphic" in2="effect1_dropShadow_2_3" result="shape"/>
</filter>
<filter id="filter1_d_2_3" x="1256.4" y="775" width="19.7" height="25" filterUnits="userSpaceOnUse" color-interpolation-filters="sRGB">
<feFlood flood-opacity="0" result="BackgroundImageFix"/>
<feColorMatrix in="SourceAlpha" type="matrix" values="0 0 0 0 0 0 0 0 0 0 0 0 0 0 0 0 0 0 127 0" result="hardAlpha"/>
<feOffset/>
<feGaussianBlur stdDeviation="2"/>
<feColorMatrix type="matrix" values="0 0 0 0 1 0 0 0 0 1 0 0 0 0 1 0 0 0 0.25 0"/>
<feBlend mode="normal" in2="BackgroundImageFix" result="effect1_dropShadow_2_3"/>
<feBlend mode="normal" in="SourceGraphic" in2="effect1_dropShadow_2_3" result="shape"/>
</filter>
<filter id="filter2_d_2_3" x="1244.7" y="144" width="19.7" height="25" filterUnits="userSpaceOnUse" color-interpolation-filters="sRGB">
<feFlood flood-opacity="0" result="BackgroundImageFix"/>
<feColorMatrix in="SourceAlpha" type="matrix" values="0 0 0 0 0 0 0 0 0 0 0 0 0 0 0 0 0 0 127 0" result="hardAlpha"/>
<feOffset/>
<feGaussianBlur stdDeviation="2"/>
<feColorMatrix type="matrix" values="0 0 0 0 1 0 0 0 0 1 0 0 0 0 1 0 0 0 0.25 0"/>
<feBlend mode="normal" in2="BackgroundImageFix" result="effect1_dropShadow_2_3"/>
<feBlend mode="normal" in="SourceGraphic" in2="effect1_dropShadow_2_3" result="shape"/>
</filter>
<filter id="filter3_d_2_3" x="136.8" y="827" width="19.7" height="25" filterUnits="userSpaceOnUse" color-interpolation-filters="sRGB">
<feFlood flood-opacity="0" result="BackgroundImageFix"/>
<feColorMatrix in="SourceAlpha" type="matrix" values="0 0 0 0 0 0 0 0 0 0 0 0 0 0 0 0 0 0 127 0" result="hardAlpha"/>
<feOffset/>
<feGaussianBlur stdDeviation="2"/>
<feColorMatrix type="matrix" values="0 0 0 0 1 0 0 0 0 1 0 0 0 0 1 0 0 0 0.25 0"/>
<feBlend mode="normal" in2="BackgroundImageFix" result="effect1_dropShadow_2_3"/>
<feBlend mode="normal" in="SourceGraphic" in2="effect1_dropShadow_2_3" result="shape"/>
</filter>
<filter id="filter4_d_2_3" x="1519.2" y="495" width="19.7" height="25" filterUnits="userSpaceOnUse" color-interpolation-filters="sRGB">
<feFlood flood-opacity="0" result="BackgroundImageFix"/>
<feColorMatrix in="SourceAlpha" type="matrix" values="0 0 0 0 0 0 0 0 0 0 0 0 0 0 0 0 0 0 127 0" result="hardAlpha"/>
<feOffset/>
<feGaussianBlur stdDeviation="2"/>
<feColorMatrix type="matrix" values="0 0 0 0 1 0 0 0 0 1 0 0 0 0 1 0 0 0 0.25 0"/>
<feBlend mode="normal" in2="BackgroundImageFix" result="effect1_dropShadow_2_3"/>
<feBlend mode="normal" in="SourceGraphic" in2="effect1_dropShadow_2_3" result="shape"/>
</filter>
<filter id="filter5_d_2_3" x="369.9" y="152" width="19.7" height="25" filterUnits="userSpaceOnUse" color-interpolation-filters="sRGB">
<feFlood flood-opacity="0" result="BackgroundImageFix"/>
<feColorMatrix in="SourceAlpha" type="matrix" values="0 0 0 0 0 0 0 0 0 0 0 0 0 0 0 0 0 0 127 0" result="hardAlpha"/>
<feOffset/>
<feGaussianBlur stdDeviation="2"/>
<feColorMatrix type="matrix" values="0 0 0 0 1 0 0 0 0 1 0 0 0 0 1 0 0 0 0.25 0"/>
<feBlend mode="normal" in2="BackgroundImageFix" result="effect1_dropShadow_2_3"/>
<feBlend mode="normal" in="SourceGraphic" in2="effect1_dropShadow_2_3" result="shape"/>
</filter>
<filter id="filter6_d_2_3" x="498.6" y="654" width="19.7" height="25" filterUnits="userSpaceOnUse" color-interpolation-filters="sRGB">
<feFlood flood-opacity="0" result="BackgroundImageFix"/>
<feColorMatrix in="SourceAlpha" type="matrix" values="0 0 0 0 0 0 0 0 0 0 0 0 0 0 0 0 0 0 127 0" result="hardAlpha"/>
<feOffset/>
<feGaussianBlur stdDeviation="2"/>
<feColorMatrix type="matrix" values="0 0 0 0 1 0 0 0 0 1 0 0 0 0 1 0 0 0 0.25 0"/>
<feBlend mode="normal" in2="BackgroundImageFix" result="effect1_dropShadow_2_3"/>
<feBlend mode="normal" in="SourceGraphic" in2="effect1_dropShadow_2_3" result="shape"/>
</filter>
<filter id="filter7_d_2_3" x="1530.9" y="979" width="19.7" height="25" filterUnits="userSpaceOnUse" color-interpolation-filters="sRGB">
<feFlood flood-opacity="0" result="BackgroundImageFix"/>
<feColorMatrix in="SourceAlpha" type="matrix" values="0 0 0 0 0 0 0 0 0 0 0 0 0 0 0 0 0 0 127 0" result="hardAlpha"/>
<feOffset/>
<feGaussianBlur stdDeviation="2"/>
<feColorMatrix type="matrix" values="0 0 0 0 1 0 0 0 0 1 0 0 0 0 1 0 0 0 0.25 0"/>
<feBlend mode="normal" in2="BackgroundImageFix" result="effect1_dropShadow_2_3"/>
<feBlend mode="normal" in="SourceGraphic" in2="effect1_dropShadow_2_3" result="shape"/>
</filter>
<filter id="filter8_d_2_3" x="1256.4" y="775" width="19.7" height="25" filterUnits="userSpaceOnUse" color-interpolation-filters="sRGB">
<feFlood flood-opacity="0" result="BackgroundImageFix"/>
<feColorMatrix in="SourceAlpha" type="matrix" values="0 0 0 0 0 0 0 0 0 0 0 0 0 0 0 0 0 0 127 0" result="hardAlpha"/>
<feOffset/>
<feGaussianBlur stdDeviation="2"/>
<feColorMatrix type="matrix" values="0 0 0 0 1 0 0 0 0 1 0 0 0 0 1 0 0 0 0.25 0"/>
<feBlend mode="normal" in2="BackgroundImageFix" result="effect1_dropShadow_2_3"/>
<feBlend mode="normal" in="SourceGraphic" in2="effect1_dropShadow_2_3" result="shape"/>
</filter>
<filter id="filter9_d_2_3" x="63.9" y="144" width="19.7" height="25" filterUnits="userSpaceOnUse" color-interpolation-filters="sRGB">
<feFlood flood-opacity="0" result="BackgroundImageFix"/>
<feColorMatrix in="SourceAlpha" type="matrix" values="0 0 0 0 0 0 0 0 0 0 0 0 0 0 0 0 0 0 127 0" result="hardAlpha"/>
<feOffset/>
<feGaussianBlur stdDeviation="2"/>
<feColorMatrix type="matrix" values="0 0 0 0 1 0 0 0 0 1 0 0 0 0 1 0 0 0 0.25 0"/>
<feBlend mode="normal" in2="BackgroundImageFix" result="effect1_dropShadow_2_3"/>
<feBlend mode="normal" in="SourceGraphic" in2="effect1_dropShadow_2_3" result="shape"/>
</filter>
<filter id="filter10_d_2_3" x="160.2" y="245" width="19.7" height="25" filterUnits="userSpaceOnUse" color-interpolation-filters="sRGB">
<feFlood flood-opacity="0" result="BackgroundImageFix"/>
<feColorMatrix in="SourceAlpha" type="matrix" values="0 0 0 0 0 0 0 0 0 0 0 0 0 0 0 0 0 0 127 0" result="hardAlpha"/>
<feOffset/>
<feGaussianBlur stdDeviation="2"/>
<feColorMatrix type="matrix" values="0 0 0 0 1 0 0 0 0 1 0 0 0 0 1 0 0 0 0.25 0"/>
<feBlend mode="normal" in2="BackgroundImageFix" result="effect1_dropShadow_2_3"/>
<feBlend mode="normal" in="SourceGraphic" in2="effect1_dropShadow_2_3" result="shape"/>
</filter>
<filter id="filter11_d_2_3" x="180.9" y="437" width="19.7" height="25" filterUnits="userSpaceOnUse" color-interpolation-filters="sRGB">
<feFlood flood-opacity="0" result="BackgroundImageFix"/>
<feColorMatrix in="SourceAlpha" type="matrix" values="0 0 0 0 0 0 0 0 0 0 0 0 0 0 0 0 0 0 127 0" result="hardAlpha"/>
<feOffset/>
<feGaussianBlur stdDeviation="2"/>
<feColorMatrix type="matrix" values="0 0 0 0 1 0 0 0 0 1 0 0 0 0 1 0 0 0 0.25 0"/>
<feBlend mode="normal" in2="BackgroundImageFix" result="effect1_dropShadow_2_3"/>
<feBlend mode="normal" in="SourceGraphic" in2="effect1_dropShadow_2_3" result="shape"/>
</filter>
<filter id="filter12_d_2_3" x="828" y="215" width="19.7" height="25" filterUnits="userSpaceOnUse" color-interpolation-filters="sRGB">
<feFlood flood-opacity="0" result="BackgroundImageFix"/>
<feColorMatrix in="SourceAlpha" type="matrix" values="0 0 0 0 0 0 0 0 0 0 0 0 0 0 0 0 0 0 127 0" result="hardAlpha"/>
<feOffset/>
<feGaussianBlur stdDeviation="2"/>
<feColorMatrix type="matrix" values="0 0 0 0 1 0 0 0 0 1 0 0 0 0 1 0 0 0 0.25 0"/>
<feBlend mode="normal" in2="BackgroundImageFix" result="effect1_dropShadow_2_3"/>
<feBlend mode="normal" in="SourceGraphic" in2="effect1_dropShadow_2_3" result="shape"/>
</filter>
<filter id="filter13_d_2_3" x="712.8" y="889" width="19.7" height="25" filterUnits="userSpaceOnUse" color-interpolation-filters="sRGB">
<feFlood flood-opacity="0" result="BackgroundImageFix"/>
<feColorMatrix in="SourceAlpha" type="matrix" values="0 0 0 0 0 0 0 0 0 0 0 0 0 0 0 0 0 0 127 0" result="hardAlpha"/>
<feOffset/>
<feGaussianBlur stdDeviation="2"/>
<feColorMatrix type="matrix" values="0 0 0 0 1 0 0 0 0 1 0 0 0 0 1 0 0 0 0.25 0"/>
<feBlend mode="normal" in2="BackgroundImageFix" result="effect1_dropShadow_2_3"/>
<feBlend mode="normal" in="SourceGraphic" in2="effect1_dropShadow_2_3" result="shape"/>
</filter>
<filter id="filter14_d_2_3" x="668.7" y="373" width="19.7" height="25" filterUnits="userSpaceOnUse" color-interpolation-filters="sRGB">
<feFlood flood-opacity="0" result="BackgroundImageFix"/>
<feColorMatrix in="SourceAlpha" type="matrix" values="0 0 0 0 0 0 0 0 0 0 0 0 0 0 0 0 0 0 127 0" result="hardAlpha"/>
<feOffset/>
<feGaussianBlur stdDeviation="2"/>
<feColorMatrix type="matrix" values="0 0 0 0 1 0 0 0 0 1 0 0 0 0 1 0 0 0 0.25 0"/>
<feBlend mode="normal" in2="BackgroundImageFix" result="effect1_dropShadow_2_3"/>
<feBlend mode="normal" in="SourceGraphic" in2="effect1_dropShadow_2_3" result="shape"/>
</filter>
<filter id="filter15_d_2_3" x="103.5" y="662" width="30.5" height="29" filterUnits="userSpaceOnUse" color-interpolation-filters="sRGB">
<feFlood flood-opacity="0" result="BackgroundImageFix"/>
<feColorMatrix in="SourceAlpha" type="matrix" values="0 0 0 0 0 0 0 0 0 0 0 0 0 0 0 0 0 0 127 0" result="hardAlpha"/>
<feOffset/>
<feGaussianBlur stdDeviation="2"/>
<feColorMatrix type="matrix" values="0 0 0 0 1 0 0 0 0 1 0 0 0 0 1 0 0 0 0.25 0"/>
<feBlend mode="normal" in2="BackgroundImageFix" result="effect1_dropShadow_2_3"/>
<feBlend mode="normal" in="SourceGraphic" in2="effect1_dropShadow_2_3" result="shape"/>
</filter>
<filter id="filter16_d_2_3" x="1485" y="245" width="30.5" height="29" filterUnits="userSpaceOnUse" color-interpolation-filters="sRGB">
<feFlood flood-opacity="0" result="BackgroundImageFix"/>
<feColorMatrix in="SourceAlpha" type="matrix" values="0 0 0 0 0 0 0 0 0 0 0 0 0 0 0 0 0 0 127 0" result="hardAlpha"/>
<feOffset/>
<feGaussianBlur stdDeviation="2"/>
<feColorMatrix type="matrix" values="0 0 0 0 1 0 0 0 0 1 0 0 0 0 1 0 0 0 0.25 0"/>
<feBlend mode="normal" in2="BackgroundImageFix" result="effect1_dropShadow_2_3"/>
<feBlend mode="normal" in="SourceGraphic" in2="effect1_dropShadow_2_3" result="shape"/>
</filter>
<filter id="filter17_d_2_3" x="347.4" y="929" width="30.5" height="29" filterUnits="userSpaceOnUse" color-interpolation-filters="sRGB">
<feFlood flood-opacity="0" result="BackgroundImageFix"/>
<feColorMatrix in="SourceAlpha" type="matrix" values="0 0 0 0 0 0 0 0 0 0 0 0 0 0 0 0 0 0 127 0" result="hardAlpha"/>
<feOffset/>
<feGaussianBlur stdDeviation="2"/>
<feColorMatrix type="matrix" values="0 0 0 0 1 0 0 0 0 1 0 0 0 0 1 0 0 0 0.25 0"/>
<feBlend mode="normal" in2="BackgroundImageFix" result="effect1_dropShadow_2_3"/>
<feBlend mode="normal" in="SourceGraphic" in2="effect1_dropShadow_2_3" result="shape"/>
</filter>
<filter id="filter18_d_2_3" x="88.2" y="467" width="15.2" height="17" filterUnits="userSpaceOnUse" color-interpolation-filters="sRGB">
<feFlood flood-opacity="0" result="BackgroundImageFix"/>
<feColorMatrix in="SourceAlpha" type="matrix" values="0 0 0 0 0 0 0 0 0 0 0 0 0 0 0 0 0 0 127 0" result="hardAlpha"/>
<feOffset/>
<feGaussianBlur stdDeviation="2"/>
<feColorMatrix type="matrix" values="0 0 0 0 1 0 0 0 0 1 0 0 0 0 1 0 0 0 0.25 0"/>
<feBlend mode="normal" in2="BackgroundImageFix" result="effect1_dropShadow_2_3"/>
<feBlend mode="normal" in="SourceGraphic" in2="effect1_dropShadow_2_3" result="shape"/>
</filter>
<filter id="filter19_d_2_3" x="756" y="189" width="15.2" height="17" filterUnits="userSpaceOnUse" color-interpolation-filters="sRGB">
<feFlood flood-opacity="0" result="BackgroundImageFix"/>
<feColorMatrix in="SourceAlpha" type="matrix" values="0 0 0 0 0 0 0 0 0 0 0 0 0 0 0 0 0 0 127 0" result="hardAlpha"/>
<feOffset/>
<feGaussianBlur stdDeviation="2"/>
<feColorMatrix type="matrix" values="0 0 0 0 1 0 0 0 0 1 0 0 0 0 1 0 0 0 0.25 0"/>
<feBlend mode="normal" in2="BackgroundImageFix" result="effect1_dropShadow_2_3"/>
<feBlend mode="normal" in="SourceGraphic" in2="effect1_dropShadow_2_3" result="shape"/>
</filter>
<filter id="filter20_d_2_3" x="72" y="970" width="15.2" height="17" filterUnits="userSpaceOnUse" color-interpolation-filters="sRGB">
<feFlood flood-opacity="0" result="BackgroundImageFix"/>
<feColorMatrix in="SourceAlpha" type="matrix" values="0 0 0 0 0 0 0 0 0 0 0 0 0 0 0 0 0 0 127 0" result="hardAlpha"/>
<feOffset/>
<feGaussianBlur stdDeviation="2"/>
<feColorMatrix type="matrix" values="0 0 0 0 1 0 0 0 0 1 0 0 0 0 1 0 0 0 0.25 0"/>
<feBlend mode="normal" in2="BackgroundImageFix" result="effect1_dropShadow_2_3"/>
<feBlend mode="normal" in="SourceGraphic" in2="effect1_dropShadow_2_3" result="shape"/>
</filter>
<filter id="filter21_d_2_3" x="340.2" y="584" width="15.2" height="17" filterUnits="userSpaceOnUse" color-interpolation-filters="sRGB">
<feFlood flood-opacity="0" result="BackgroundImageFix"/>
<feColorMatrix in="SourceAlpha" type="matrix" values="0 0 0 0 0 0 0 0 0 0 0 0 0 0 0 0 0 0 127 0" result="hardAlpha"/>
<feOffset/>
<feGaussianBlur stdDeviation="2"/>
<feColorMatrix type="matrix" values="0 0 0 0 1 0 0 0 0 1 0 0 0 0 1 0 0 0 0.25 0"/>
<feBlend mode="normal" in2="BackgroundImageFix" result="effect1_dropShadow_2_3"/>
<feBlend mode="normal" in="SourceGraphic" in2="effect1_dropShadow_2_3" result="shape"/>
</filter>
<filter id="filter22_d_2_3" x="381.6" y="369" width="15.2" height="17" filterUnits="userSpaceOnUse" color-interpolation-filters="sRGB">
<feFlood flood-opacity="0" result="BackgroundImageFix"/>
<feColorMatrix in="SourceAlpha" type="matrix" values="0 0 0 0 0 0 0 0 0 0 0 0 0 0 0 0 0 0 127 0" result="hardAlpha"/>
<feOffset/>
<feGaussianBlur stdDeviation="2"/>
<feColorMatrix type="matrix" values="0 0 0 0 1 0 0 0 0 1 0 0 0 0 1 0 0 0 0.25 0"/>
<feBlend mode="normal" in2="BackgroundImageFix" result="effect1_dropShadow_2_3"/>
<feBlend mode="normal" in="SourceGraphic" in2="effect1_dropShadow_2_3" result="shape"/>
</filter>
<filter id="filter23_d_2_3" x="304.2" y="831" width="15.2" height="17" filterUnits="userSpaceOnUse" color-interpolation-filters="sRGB">
<feFlood flood-opacity="0" result="BackgroundImageFix"/>
<feColorMatrix in="SourceAlpha" type="matrix" values="0 0 0 0 0 0 0 0 0 0 0 0 0 0 0 0 0 0 127 0" result="hardAlpha"/>
<feOffset/>
<feGaussianBlur stdDeviation="2"/>
<feColorMatrix type="matrix" values="0 0 0 0 1 0 0 0 0 1 0 0 0 0 1 0 0 0 0.25 0"/>
<feBlend mode="normal" in2="BackgroundImageFix" result="effect1_dropShadow_2_3"/>
<feBlend mode="normal" in="SourceGraphic" in2="effect1_dropShadow_2_3" result="shape"/>
</filter>
<filter id="filter24_d_2_3" x="539.1" y="946" width="15.2" height="17" filterUnits="userSpaceOnUse" color-interpolation-filters="sRGB">
<feFlood flood-opacity="0" result="BackgroundImageFix"/>
<feColorMatrix in="SourceAlpha" type="matrix" values="0 0 0 0 0 0 0 0 0 0 0 0 0 0 0 0 0 0 127 0" result="hardAlpha"/>
<feOffset/>
<feGaussianBlur stdDeviation="2"/>
<feColorMatrix type="matrix" values="0 0 0 0 1 0 0 0 0 1 0 0 0 0 1 0 0 0 0.25 0"/>
<feBlend mode="normal" in2="BackgroundImageFix" result="effect1_dropShadow_2_3"/>
<feBlend mode="normal" in="SourceGraphic" in2="effect1_dropShadow_2_3" result="shape"/>
</filter>
<filter id="filter25_d_2_3" x="836.1" y="775" width="15.2" height="17" filterUnits="userSpaceOnUse" color-interpolation-filters="sRGB">
<feFlood flood-opacity="0" result="BackgroundImageFix"/>
<feColorMatrix in="SourceAlpha" type="matrix" values="0 0 0 0 0 0 0 0 0 0 0 0 0 0 0 0 0 0 127 0" result="hardAlpha"/>
<feOffset/>
<feGaussianBlur stdDeviation="2"/>
<feColorMatrix type="matrix" values="0 0 0 0 1 0 0 0 0 1 0 0 0 0 1 0 0 0 0.25 0"/>
<feBlend mode="normal" in2="BackgroundImageFix" result="effect1_dropShadow_2_3"/>
<feBlend mode="normal" in="SourceGraphic" in2="effect1_dropShadow_2_3" result="shape"/>
</filter>
<filter id="filter26_d_2_3" x="958.5" y="996" width="15.2" height="17" filterUnits="userSpaceOnUse" color-interpolation-filters="sRGB">
<feFlood flood-opacity="0" result="BackgroundImageFix"/>
<feColorMatrix in="SourceAlpha" type="matrix" values="0 0 0 0 0 0 0 0 0 0 0 0 0 0 0 0 0 0 127 0" result="hardAlpha"/>
<feOffset/>
<feGaussianBlur stdDeviation="2"/>
<feColorMatrix type="matrix" values="0 0 0 0 1 0 0 0 0 1 0 0 0 0 1 0 0 0 0.25 0"/>
<feBlend mode="normal" in2="BackgroundImageFix" result="effect1_dropShadow_2_3"/>
<feBlend mode="normal" in="SourceGraphic" in2="effect1_dropShadow_2_3" result="shape"/>
</filter>
<filter id="filter27_d_2_3" x="572.4" y="215" width="15.2" height="17" filterUnits="userSpaceOnUse" color-interpolation-filters="sRGB">
<feFlood flood-opacity="0" result="BackgroundImageFix"/>
<feColorMatrix in="SourceAlpha" type="matrix" values="0 0 0 0 0 0 0 0 0 0 0 0 0 0 0 0 0 0 127 0" result="hardAlpha"/>
<feOffset/>
<feGaussianBlur stdDeviation="2"/>
<feColorMatrix type="matrix" values="0 0 0 0 1 0 0 0 0 1 0 0 0 0 1 0 0 0 0.25 0"/>
<feBlend mode="normal" in2="BackgroundImageFix" result="effect1_dropShadow_2_3"/>
<feBlend mode="normal" in="SourceGraphic" in2="effect1_dropShadow_2_3" result="shape"/>
</filter>
<filter id="filter28_d_2_3" x="661.5" y="56" width="15.2" height="17" filterUnits="userSpaceOnUse" color-interpolation-filters="sRGB">
<feFlood flood-opacity="0" result="BackgroundImageFix"/>
<feColorMatrix in="SourceAlpha" type="matrix" values="0 0 0 0 0 0 0 0 0 0 0 0 0 0 0 0 0 0 127 0" result="hardAlpha"/>
<feOffset/>
<feGaussianBlur stdDeviation="2"/>
<feColorMatrix type="matrix" values="0 0 0 0 1 0 0 0 0 1 0 0 0 0 1 0 0 0 0.25 0"/>
<feBlend mode="normal" in2="BackgroundImageFix" result="effect1_dropShadow_2_3"/>
<feBlend mode="normal" in="SourceGraphic" in2="effect1_dropShadow_2_3" result="shape"/>
</filter>
<filter id="filter29_d_2_3" x="1148.4" y="249" width="15.2" height="17" filterUnits="userSpaceOnUse" color-interpolation-filters="sRGB">
<feFlood flood-opacity="0" result="BackgroundImageFix"/>
<feColorMatrix in="SourceAlpha" type="matrix" values="0 0 0 0 0 0 0 0 0 0 0 0 0 0 0 0 0 0 127 0" result="hardAlpha"/>
<feOffset/>
<feGaussianBlur stdDeviation="2"/>
<feColorMatrix type="matrix" values="0 0 0 0 1 0 0 0 0 1 0 0 0 0 1 0 0 0 0.25 0"/>
<feBlend mode="normal" in2="BackgroundImageFix" result="effect1_dropShadow_2_3"/>
<feBlend mode="normal" in="SourceGraphic" in2="effect1_dropShadow_2_3" result="shape"/>
</filter>
<filter id="filter30_d_2_3" x="1173.6" y="906" width="15.2" height="17" filterUnits="userSpaceOnUse" color-interpolation-filters="sRGB">
<feFlood flood-opacity="0" result="BackgroundImageFix"/>
<feColorMatrix in="SourceAlpha" type="matrix" values="0 0 0 0 0 0 0 0 0 0 0 0 0 0 0 0 0 0 127 0" result="hardAlpha"/>
<feOffset/>
<feGaussianBlur stdDeviation="2"/>
<feColorMatrix type="matrix" values="0 0 0 0 1 0 0 0 0 1 0 0 0 0 1 0 0 0 0.25 0"/>
<feBlend mode="normal" in2="BackgroundImageFix" result="effect1_dropShadow_2_3"/>
<feBlend mode="normal" in="SourceGraphic" in2="effect1_dropShadow_2_3" result="shape"/>
</filter>
<filter id="filter31_d_2_3" x="1496.7" y="844" width="15.2" height="17" filterUnits="userSpaceOnUse" color-interpolation-filters="sRGB">
<feFlood flood-opacity="0" result="BackgroundImageFix"/>
<feColorMatrix in="SourceAlpha" type="matrix" values="0 0 0 0 0 0 0 0 0 0 0 0 0 0 0 0 0 0 127 0" result="hardAlpha"/>
<feOffset/>
<feGaussianBlur stdDeviation="2"/>
<feColorMatrix type="matrix" values="0 0 0 0 1 0 0 0 0 1 0 0 0 0 1 0 0 0 0.25 0"/>
<feBlend mode="normal" in2="BackgroundImageFix" result="effect1_dropShadow_2_3"/>
<feBlend mode="normal" in="SourceGraphic" in2="effect1_dropShadow_2_3" result="shape"/>
</filter>
<filter id="filter32_d_2_3" x="1404.9" y="593" width="15.2" height="17" filterUnits="userSpaceOnUse" color-interpolation-filters="sRGB">
<feFlood flood-opacity="0" result="BackgroundImageFix"/>
<feColorMatrix in="SourceAlpha" type="matrix" values="0 0 0 0 0 0 0 0 0 0 0 0 0 0 0 0 0 0 127 0" result="hardAlpha"/>
<feOffset/>
<feGaussianBlur stdDeviation="2"/>
<feColorMatrix type="matrix" values="0 0 0 0 1 0 0 0 0 1 0 0 0 0 1 0 0 0 0.25 0"/>
<feBlend mode="normal" in2="BackgroundImageFix" result="effect1_dropShadow_2_3"/>
<feBlend mode="normal" in="SourceGraphic" in2="effect1_dropShadow_2_3" result="shape"/>
</filter>
<filter id="filter33_d_2_3" x="1542.6" y="98" width="15.2" height="17" filterUnits="userSpaceOnUse" color-interpolation-filters="sRGB">
<feFlood flood-opacity="0" result="BackgroundImageFix"/>
<feColorMatrix in="SourceAlpha" type="matrix" values="0 0 0 0 0 0 0 0 0 0 0 0 0 0 0 0 0 0 127 0" result="hardAlpha"/>
<feOffset/>
<feGaussianBlur stdDeviation="2"/>
<feColorMatrix type="matrix" values="0 0 0 0 1 0 0 0 0 1 0 0 0 0 1 0 0 0 0.25 0"/>
<feBlend mode="normal" in2="BackgroundImageFix" result="effect1_dropShadow_2_3"/>
<feBlend mode="normal" in="SourceGraphic" in2="effect1_dropShadow_2_3" result="shape"/>
</filter>
<filter id="filter34_d_2_3" x="1084.5" y="410" width="15.2" height="17" filterUnits="userSpaceOnUse" color-interpolation-filters="sRGB">
<feFlood flood-opacity="0" result="BackgroundImageFix"/>
<feColorMatrix in="SourceAlpha" type="matrix" values="0 0 0 0 0 0 0 0 0 0 0 0 0 0 0 0 0 0 127 0" result="hardAlpha"/>
<feOffset/>
<feGaussianBlur stdDeviation="2"/>
<feColorMatrix type="matrix" values="0 0 0 0 1 0 0 0 0 1 0 0 0 0 1 0 0 0 0.25 0"/>
<feBlend mode="normal" in2="BackgroundImageFix" result="effect1_dropShadow_2_3"/>
<feBlend mode="normal" in="SourceGraphic" in2="effect1_dropShadow_2_3" result="shape"/>
</filter>
<filter id="filter35_d_2_3" x="1091.7" y="668" width="15.2" height="17" filterUnits="userSpaceOnUse" color-interpolation-filters="sRGB">
<feFlood flood-opacity="0" result="BackgroundImageFix"/>
<feColorMatrix in="SourceAlpha" type="matrix" values="0 0 0 0 0 0 0 0 0 0 0 0 0 0 0 0 0 0 127 0" result="hardAlpha"/>
<feOffset/>
<feGaussianBlur stdDeviation="2"/>
<feColorMatrix type="matrix" values="0 0 0 0 1 0 0 0 0 1 0 0 0 0 1 0 0 0 0.25 0"/>
<feBlend mode="normal" in2="BackgroundImageFix" result="effect1_dropShadow_2_3"/>
<feBlend mode="normal" in="SourceGraphic" in2="effect1_dropShadow_2_3" result="shape"/>
</filter>
<filter id="filter36_d_2_3" x="1338.3" y="419" width="15.2" height="17" filterUnits="userSpaceOnUse" color-interpolation-filters="sRGB">
<feFlood flood-opacity="0" result="BackgroundImageFix"/>
<feColorMatrix in="SourceAlpha" type="matrix" values="0 0 0 0 0 0 0 0 0 0 0 0 0 0 0 0 0 0 127 0" result="hardAlpha"/>
<feOffset/>
<feGaussianBlur stdDeviation="2"/>
<feColorMatrix type="matrix" values="0 0 0 0 1 0 0 0 0 1 0 0 0 0 1 0 0 0 0.25 0"/>
<feBlend mode="normal" in2="BackgroundImageFix" result="effect1_dropShadow_2_3"/>
<feBlend mode="normal" in="SourceGraphic" in2="effect1_dropShadow_2_3" result="shape"/>
</filter>
<filter id="filter37_d_2_3" x="883.8" y="419" width="15.2" height="17" filterUnits="userSpaceOnUse" color-interpolation-filters="sRGB">
<feFlood flood-opacity="0" result="BackgroundImageFix"/>
<feColorMatrix in="SourceAlpha" type="matrix" values="0 0 0 0 0 0 0 0 0 0 0 0 0 0 0 0 0 0 127 0" result="hardAlpha"/>
<feOffset/>
<feGaussianBlur stdDeviation="2"/>
<feColorMatrix type="matrix" values="0 0 0 0 1 0 0 0 0 1 0 0 0 0 1 0 0 0 0.25 0"/>
<feBlend mode="normal" in2="BackgroundImageFix" result="effect1_dropShadow_2_3"/>
<feBlend mode="normal" in="SourceGraphic" in2="effect1_dropShadow_2_3" result="shape"/>
</filter>
<filter id="filter38_d_2_3" x="680.4" y="584" width="15.2" height="17" filterUnits="userSpaceOnUse" color-interpolation-filters="sRGB">
<feFlood flood-opacity="0" result="BackgroundImageFix"/>
<feColorMatrix in="SourceAlpha" type="matrix" values="0 0 0 0 0 0 0 0 0 0 0 0 0 0 0 0 0 0 127 0" result="hardAlpha"/>
<feOffset/>
<feGaussianBlur stdDeviation="2"/>
<feColorMatrix type="matrix" values="0 0 0 0 1 0 0 0 0 1 0 0 0 0 1 0 0 0 0.25 0"/>
<feBlend mode="normal" in2="BackgroundImageFix" result="effect1_dropShadow_2_3"/>
<feBlend mode="normal" in="SourceGraphic" in2="effect1_dropShadow_2_3" result="shape"/>
</filter>
<filter id="filter39_d_2_3" x="891" y="602" width="15.2" height="17" filterUnits="userSpaceOnUse" color-interpolation-filters="sRGB">
<feFlood flood-opacity="0" result="BackgroundImageFix"/>
<feColorMatrix in="SourceAlpha" type="matrix" values="0 0 0 0 0 0 0 0 0 0 0 0 0 0 0 0 0 0 127 0" result="hardAlpha"/>
<feOffset/>
<feGaussianBlur stdDeviation="2"/>
<feColorMatrix type="matrix" values="0 0 0 0 1 0 0 0 0 1 0 0 0 0 1 0 0 0 0.25 0"/>
<feBlend mode="normal" in2="BackgroundImageFix" result="effect1_dropShadow_2_3"/>
<feBlend mode="normal" in="SourceGraphic" in2="effect1_dropShadow_2_3" result="shape"/>
</filter>
<radialGradient id="paint0_radial_2_3" cx="0" cy="0" r="1" gradientUnits="userSpaceOnUse" gradientTransform="translate(832 540) rotate(81.6656) scale(757.5 1217.97)">
<stop stop-color="white"/>
<stop offset="0.0001" stop-color="#20204E"/>
<stop offset="1" stop-color="#070617"/>
</radialGradient>
</defs>
</svg>
